<svg version="1.1" id="Layer_1" xmlns="http://www.w3.org/2000/svg" xmlns:xlink="http://www.w3.org/1999/xlink" x="0px" y="0px"
	 width="100%" viewBox="0 0 3840 2160" enable-background="new 0 0 3840 2160" xml:space="preserve">
<path fill="#000000" opacity="1.000000" stroke="none" 
	d="
M2834.000000,2162.000000 
	C1889.333496,2162.000000 945.666992,2162.000000 2.000380,2162.000000 
	C2.000253,1442.000244 2.000253,722.000610 2.000127,2.000669 
	C1281.999512,2.000446 2561.999023,2.000446 3841.999023,2.000223 
	C3841.999268,721.999329 3841.999268,1441.998657 3841.999512,2161.999023 
	C3506.333252,2162.000000 3170.666748,2162.000000 2834.000000,2162.000000 
M1640.872925,602.121033 
	C1664.322998,688.479919 1687.807495,774.829468 1711.210449,861.201111 
	C1725.654053,914.507202 1739.920776,967.861084 1754.374390,1021.164429 
	C1760.208008,1042.677490 1765.862183,1064.257080 1772.444580,1085.544556 
	C1779.572144,1108.595459 1794.846558,1123.817993 1818.878296,1129.007568 
	C1825.980225,1130.541382 1833.351074,1131.526001 1840.603638,1131.555298 
	C1892.931030,1131.767090 1945.259888,1131.747681 1997.587524,1131.573853 
	C2004.524292,1131.550903 2011.569336,1130.797607 2018.369751,1129.421753 
	C2036.824341,1125.687988 2050.585693,1115.393799 2058.548096,1098.167725 
	C2061.741699,1091.258545 2064.508789,1084.047119 2066.516357,1076.712280 
	C2076.793213,1039.167969 2086.789307,1001.546753 2096.826416,963.937256 
	C2113.297363,902.219421 2129.754639,840.497742 2146.162354,778.763000 
	C2164.365479,710.273621 2182.426270,641.746277 2200.697510,573.275146 
	C2218.024170,508.343109 2235.894287,443.553925 2252.867432,378.530182 
	C2266.395264,326.707092 2278.370850,274.505127 2286.491699,221.502548 
	C2289.108643,204.421692 2291.641846,187.327866 2294.296631,170.252945 
	C2295.091797,165.138290 2295.415771,159.580383 2303.043701,157.421982 
	C2304.166992,161.146637 2305.673584,164.407669 2306.065186,167.797470 
	C2306.902588,175.045776 2306.939209,182.384216 2307.699707,189.644302 
	C2310.572021,217.069672 2312.982422,244.563126 2316.709229,271.875031 
	C2323.550293,322.008667 2334.622559,371.332031 2346.605225,420.464996 
	C2367.416016,505.796875 2387.984375,591.187927 2408.659180,676.552979 
	C2428.393799,758.035339 2448.123291,839.518921 2467.877197,920.996582 
	C2476.500244,956.564270 2485.174316,992.119629 2493.834717,1027.678345 
	C2498.637451,1047.398560 2503.235107,1067.172241 2508.343994,1086.812866 
	C2512.279053,1101.941162 2518.538574,1115.872314 2533.009033,1124.051025 
	C2544.064697,1130.299561 2556.424561,1131.507202 2568.744385,1131.578491 
	C2609.739258,1131.815674 2650.736084,1131.748291 2691.731689,1131.583984 
	C2698.007324,1131.558838 2704.371826,1130.884888 2710.534424,1129.684937 
	C2730.849609,1125.728882 2743.801758,1110.046509 2743.535400,1089.426514 
	C2743.455078,1083.199463 2742.275391,1076.845581 2740.656494,1070.802246 
	C2729.464111,1029.024902 2718.052246,987.306213 2706.654541,945.584045 
	C2684.560547,864.707703 2662.371582,783.857300 2640.326904,702.967529 
	C2607.346680,581.952942 2574.468262,460.910645 2541.525146,339.885864 
	C2518.893311,256.742767 2496.332275,173.579987 2473.460449,90.502831 
	C2469.942383,77.723434 2465.505615,65.116356 2460.443604,52.863331 
	C2454.390625,38.211838 2442.133301,31.226597 2426.787598,29.888468 
	C2415.527588,28.906603 2404.191406,28.441719 2392.886475,28.397600 
	C2350.224609,28.231115 2307.561035,28.179071 2264.899414,28.391682 
	C2241.935547,28.506124 2218.949951,28.737692 2196.020752,29.864883 
	C2178.122559,30.744743 2163.104492,38.239273 2153.870605,54.320969 
	C2149.936768,61.172073 2146.502441,68.584999 2144.415039,76.175423 
	C2132.505371,119.482101 2121.052734,162.914566 2109.477783,206.313171 
	C2091.473145,273.818756 2073.460205,341.322113 2055.518066,408.844238 
	C2043.128906,455.468964 2030.974121,502.156158 2018.498657,548.757629 
	C1998.023193,625.242371 1976.666382,701.499390 1957.035889,778.199097 
	C1943.179932,832.336609 1933.389404,887.368347 1927.621948,943.037415 
	C1926.503052,953.836609 1925.101318,964.606628 1923.752441,976.048462 
	C1918.567871,973.535889 1917.851807,969.974243 1917.942505,965.738220 
	C1918.034546,961.428894 1917.987427,957.069275 1917.446655,952.801941 
	C1915.024292,933.687195 1912.996216,914.495422 1909.725586,895.521118 
	C1903.910400,861.785828 1898.884155,827.796570 1890.692139,794.613647 
	C1873.469727,724.852051 1854.529297,655.512390 1836.075928,586.057556 
	C1812.753052,498.275574 1789.238159,410.544586 1765.759399,322.804047 
	C1743.828979,240.849670 1721.864868,158.904236 1699.822876,76.979828 
	C1698.012085,70.249939 1695.888672,63.546021 1693.221802,57.115646 
	C1685.495361,38.485756 1671.506836,29.315943 1651.134399,29.610811 
	C1632.474365,29.880896 1613.806641,29.579319 1595.142212,29.587107 
	C1540.195435,29.610029 1485.245483,29.337658 1430.303589,29.877138 
	C1411.032227,30.066364 1395.529541,38.977844 1386.172485,56.240986 
	C1381.936279,64.056473 1378.717163,72.638649 1376.387939,81.238976 
	C1352.644531,168.906921 1329.243530,256.667511 1305.621582,344.368469 
	C1271.616333,470.619843 1237.565308,596.858948 1203.423340,723.073364 
	C1176.578735,822.311890 1149.508667,921.489380 1122.677002,1020.731384 
	C1117.122803,1041.274658 1111.687378,1061.875244 1107.130859,1082.654175 
	C1104.148804,1096.253540 1106.587280,1109.544800 1116.762207,1119.788330 
	C1125.643555,1128.729614 1137.433228,1131.598511 1149.762451,1131.627563 
	C1193.411865,1131.730591 1237.062012,1131.748291 1280.711304,1131.639404 
	C1308.738403,1131.569580 1331.790649,1112.266602 1337.638062,1084.802612 
	C1344.702026,1051.624878 1352.056274,1018.508728 1359.361816,985.382874 
	C1375.622803,911.651123 1391.937378,837.931213 1408.219116,764.203979 
	C1429.879517,666.121704 1451.782104,568.092041 1473.086670,469.932465 
	C1485.429565,413.063202 1497.704834,356.150818 1508.316895,298.943695 
	C1516.312866,255.838943 1521.608276,212.233627 1528.132690,168.855179 
	C1529.255371,161.391800 1530.513550,153.948822 1531.709106,146.496399 
	C1532.498901,146.400879 1533.288574,146.305374 1534.078369,146.209854 
	C1535.432861,149.738068 1537.460693,153.164185 1538.014282,156.813843 
	C1539.606689,167.313644 1540.467529,177.921722 1541.857056,188.455429 
	C1548.428711,238.275803 1556.850586,287.827789 1569.507690,336.435730 
	C1592.477783,424.649170 1616.692871,512.538391 1640.872925,602.121033 
M1261.574097,1827.451294 
	C1292.859619,1866.046387 1327.207031,1901.659668 1365.044434,1933.890991 
	C1406.209839,1968.956909 1450.284668,1999.802368 1497.660522,2025.927612 
	C1542.649170,2050.736572 1589.601685,2071.057617 1638.334351,2087.188721 
	C1676.539551,2099.835449 1715.459839,2109.918945 1755.016235,2117.413818 
	C1790.556641,2124.147949 1826.306519,2129.636719 1862.226685,2133.829590 
	C1875.037109,2135.324707 1888.049683,2135.593994 1900.967407,2135.554932 
	C1926.572998,2135.477539 1952.181763,2134.990234 1977.779785,2134.314453 
	C2008.314331,2133.508301 2038.503418,2129.186279 2068.553711,2124.095459 
	C2118.464600,2115.639160 2167.246582,2102.743896 2214.817383,2085.392334 
	C2256.741943,2070.100342 2297.446533,2052.089355 2336.761719,2030.906494 
	C2377.282471,2009.074097 2415.955811,1984.426636 2452.389893,1956.300171 
	C2488.801514,1928.191406 2522.796631,1897.463745 2554.020020,1863.610840 
	C2577.058838,1838.631592 2598.710449,1812.570190 2618.651855,1785.087402 
	C2667.582031,1717.653442 2706.013916,1644.546997 2737.339844,1567.437866 
	C2751.221680,1533.266846 2742.312256,1493.905884 2717.220947,1469.218384 
	C2678.326904,1430.950073 2611.451416,1425.681274 2566.859131,1462.592773 
	C2551.934814,1474.946533 2540.817627,1489.993652 2533.718994,1508.054810 
	C2523.003174,1535.318726 2511.035645,1562.025879 2496.737549,1587.611938 
	C2459.905518,1653.523804 2413.670166,1712.026367 2357.724854,1762.768677 
	C2319.584229,1797.362183 2277.575439,1826.484741 2232.127686,1850.662476 
	C2182.230225,1877.207642 2129.778564,1897.003784 2074.592285,1909.195923 
	C2051.939697,1914.200562 2029.252686,1919.443848 2005.849365,1920.122437 
	C1999.004395,1920.320801 1992.173584,1921.418335 1985.364258,1922.317139 
	C1977.874390,1923.305420 1970.438232,1925.318237 1962.941650,1925.520996 
	C1939.970459,1926.142456 1916.978149,1926.465576 1894.000977,1926.227905 
	C1872.995483,1926.010742 1852.040283,1925.231689 1831.312134,1920.633423 
	C1810.908691,1916.107178 1790.043335,1913.629639 1769.691528,1908.911987 
	C1709.703003,1895.006226 1653.144409,1872.021240 1599.298096,1842.321777 
	C1555.101318,1817.944580 1514.464355,1788.500244 1477.665894,1753.991943 
	C1454.838989,1732.585449 1433.640259,1709.600708 1414.189575,1684.960449 
	C1379.577759,1641.114136 1350.722656,1593.831177 1327.299561,1543.182617 
	C1320.599854,1528.695312 1314.766724,1513.774170 1307.454712,1499.610352 
	C1293.363037,1472.313721 1272.980591,1451.645508 1242.771484,1442.370850 
	C1220.532959,1435.543457 1198.106934,1436.167847 1175.809204,1441.716797 
	C1142.703857,1449.955444 1120.072266,1470.325439 1108.095459,1502.247437 
	C1099.806641,1524.339600 1100.102905,1546.941406 1108.584351,1568.563843 
	C1117.675659,1591.740845 1128.265259,1614.394775 1139.322144,1636.721680 
	C1156.750366,1671.914307 1176.039917,1706.115356 1197.392700,1739.116821 
	C1216.934814,1769.319702 1237.662109,1798.658325 1261.574097,1827.451294 
z"/>
<path fill="#005BC1" opacity="1.000000" stroke="none" 
	d="
M1640.630615,601.341980 
	C1616.692871,512.538391 1592.477783,424.649170 1569.507690,336.435730 
	C1556.850586,287.827789 1548.428711,238.275803 1541.857056,188.455429 
	C1540.467529,177.921722 1539.606689,167.313644 1538.014282,156.813843 
	C1537.460693,153.164185 1535.432861,149.738068 1534.078369,146.209854 
	C1533.288574,146.305374 1532.498901,146.400879 1531.709106,146.496399 
	C1530.513550,153.948822 1529.255371,161.391800 1528.132690,168.855179 
	C1521.608276,212.233627 1516.312866,255.838943 1508.316895,298.943695 
	C1497.704834,356.150818 1485.429565,413.063202 1473.086670,469.932465 
	C1451.782104,568.092041 1429.879517,666.121704 1408.219116,764.203979 
	C1391.937378,837.931213 1375.622803,911.651123 1359.361816,985.382874 
	C1352.056274,1018.508728 1344.702026,1051.624878 1337.638062,1084.802612 
	C1331.790649,1112.266602 1308.738403,1131.569580 1280.711304,1131.639404 
	C1237.062012,1131.748291 1193.411865,1131.730591 1149.762451,1131.627563 
	C1137.433228,1131.598511 1125.643555,1128.729614 1116.762207,1119.788330 
	C1106.587280,1109.544800 1104.148804,1096.253540 1107.130859,1082.654175 
	C1111.687378,1061.875244 1117.122803,1041.274658 1122.677002,1020.731384 
	C1149.508667,921.489380 1176.578735,822.311890 1203.423340,723.073364 
	C1237.565308,596.858948 1271.616333,470.619843 1305.621582,344.368469 
	C1329.243530,256.667511 1352.644531,168.906921 1376.387939,81.238976 
	C1378.717163,72.638649 1381.936279,64.056473 1386.172485,56.240986 
	C1395.529541,38.977844 1411.032227,30.066364 1430.303589,29.877138 
	C1485.245483,29.337658 1540.195435,29.610029 1595.142212,29.587107 
	C1613.806641,29.579319 1632.474365,29.880896 1651.134399,29.610811 
	C1671.506836,29.315943 1685.495361,38.485756 1693.221802,57.115646 
	C1695.888672,63.546021 1698.012085,70.249939 1699.822876,76.979828 
	C1721.864868,158.904236 1743.828979,240.849670 1765.759399,322.804047 
	C1789.238159,410.544586 1812.753052,498.275574 1836.075928,586.057556 
	C1854.529297,655.512390 1873.469727,724.852051 1890.692139,794.613647 
	C1898.884155,827.796570 1903.910400,861.785828 1909.725586,895.521118 
	C1912.996216,914.495422 1915.024292,933.687195 1917.446655,952.801941 
	C1917.987427,957.069275 1918.034546,961.428894 1917.942505,965.738220 
	C1917.851807,969.974243 1918.567871,973.535889 1923.752441,976.048462 
	C1925.101318,964.606628 1926.503052,953.836609 1927.621948,943.037415 
	C1933.389404,887.368347 1943.179932,832.336609 1957.035889,778.199097 
	C1976.666382,701.499390 1998.023193,625.242371 2018.498657,548.757629 
	C2030.974121,502.156158 2043.128906,455.468964 2055.518066,408.844238 
	C2073.460205,341.322113 2091.473145,273.818756 2109.477783,206.313171 
	C2121.052734,162.914566 2132.505371,119.482101 2144.415039,76.175423 
	C2146.502441,68.584999 2149.936768,61.172073 2153.870605,54.320969 
	C2163.104492,38.239273 2178.122559,30.744743 2196.020752,29.864883 
	C2218.949951,28.737692 2241.935547,28.506124 2264.899414,28.391682 
	C2307.561035,28.179071 2350.224609,28.231115 2392.886475,28.397600 
	C2404.191406,28.441719 2415.527588,28.906603 2426.787598,29.888468 
	C2442.133301,31.226597 2454.390625,38.211838 2460.443604,52.863331 
	C2465.505615,65.116356 2469.942383,77.723434 2473.460449,90.502831 
	C2496.332275,173.579987 2518.893311,256.742767 2541.525146,339.885864 
	C2574.468262,460.910645 2607.346680,581.952942 2640.326904,702.967529 
	C2662.371582,783.857300 2684.560547,864.707703 2706.654541,945.584045 
	C2718.052246,987.306213 2729.464111,1029.024902 2740.656494,1070.802246 
	C2742.275391,1076.845581 2743.455078,1083.199463 2743.535400,1089.426514 
	C2743.801758,1110.046509 2730.849609,1125.728882 2710.534424,1129.684937 
	C2704.371826,1130.884888 2698.007324,1131.558838 2691.731689,1131.583984 
	C2650.736084,1131.748291 2609.739258,1131.815674 2568.744385,1131.578491 
	C2556.424561,1131.507202 2544.064697,1130.299561 2533.009033,1124.051025 
	C2518.538574,1115.872314 2512.279053,1101.941162 2508.343994,1086.812866 
	C2503.235107,1067.172241 2498.637451,1047.398560 2493.834717,1027.678345 
	C2485.174316,992.119629 2476.500244,956.564270 2467.877197,920.996582 
	C2448.123291,839.518921 2428.393799,758.035339 2408.659180,676.552979 
	C2387.984375,591.187927 2367.416016,505.796875 2346.605225,420.464996 
	C2334.622559,371.332031 2323.550293,322.008667 2316.709229,271.875031 
	C2312.982422,244.563126 2310.572021,217.069672 2307.699707,189.644302 
	C2306.939209,182.384216 2306.902588,175.045776 2306.065186,167.797470 
	C2305.673584,164.407669 2304.166992,161.146637 2303.043701,157.421982 
	C2295.415771,159.580383 2295.091797,165.138290 2294.296631,170.252945 
	C2291.641846,187.327866 2289.108643,204.421692 2286.491699,221.502548 
	C2278.370850,274.505127 2266.395264,326.707092 2252.867432,378.530182 
	C2235.894287,443.553925 2218.024170,508.343109 2200.697510,573.275146 
	C2182.426270,641.746277 2164.365479,710.273621 2146.162354,778.763000 
	C2129.754639,840.497742 2113.297363,902.219421 2096.826416,963.937256 
	C2086.789307,1001.546753 2076.793213,1039.167969 2066.516357,1076.712280 
	C2064.508789,1084.047119 2061.741699,1091.258545 2058.548096,1098.167725 
	C2050.585693,1115.393799 2036.824341,1125.687988 2018.369751,1129.421753 
	C2011.569336,1130.797607 2004.524292,1131.550903 1997.587524,1131.573853 
	C1945.259888,1131.747681 1892.931030,1131.767090 1840.603638,1131.555298 
	C1833.351074,1131.526001 1825.980225,1130.541382 1818.878296,1129.007568 
	C1794.846558,1123.817993 1779.572144,1108.595459 1772.444580,1085.544556 
	C1765.862183,1064.257080 1760.208008,1042.677490 1754.374390,1021.164429 
	C1739.920776,967.861084 1725.654053,914.507202 1711.210449,861.201111 
	C1687.807495,774.829468 1664.322998,688.479919 1640.630615,601.341980 
z"/>
<path fill="#FE8500" opacity="1.000000" stroke="none" 
	d="
M1261.133057,1826.889404 
	C1237.662109,1798.658325 1216.934814,1769.319702 1197.392700,1739.116821 
	C1176.039917,1706.115356 1156.750366,1671.914307 1139.322144,1636.721680 
	C1128.265259,1614.394775 1117.675659,1591.740845 1108.584351,1568.563843 
	C1100.102905,1546.941406 1099.806641,1524.339600 1108.095459,1502.247437 
	C1120.072266,1470.325439 1142.703857,1449.955444 1175.809204,1441.716797 
	C1198.106934,1436.167847 1220.532959,1435.543457 1242.771484,1442.370850 
	C1272.980591,1451.645508 1293.363037,1472.313721 1307.454712,1499.610352 
	C1314.766724,1513.774170 1320.599854,1528.695312 1327.299561,1543.182617 
	C1350.722656,1593.831177 1379.577759,1641.114136 1414.189575,1684.960449 
	C1433.640259,1709.600708 1454.838989,1732.585449 1477.665894,1753.991943 
	C1514.464355,1788.500244 1555.101318,1817.944580 1599.298096,1842.321777 
	C1653.144409,1872.021240 1709.703003,1895.006226 1769.691528,1908.911987 
	C1790.043335,1913.629639 1810.908691,1916.107178 1831.312134,1920.633423 
	C1852.040283,1925.231689 1872.995483,1926.010742 1894.000977,1926.227905 
	C1916.978149,1926.465576 1939.970459,1926.142456 1962.941650,1925.520996 
	C1970.438232,1925.318237 1977.874390,1923.305420 1985.364258,1922.317139 
	C1992.173584,1921.418335 1999.004395,1920.320801 2005.849365,1920.122437 
	C2029.252686,1919.443848 2051.939697,1914.200562 2074.592285,1909.195923 
	C2129.778564,1897.003784 2182.230225,1877.207642 2232.127686,1850.662476 
	C2277.575439,1826.484741 2319.584229,1797.362183 2357.724854,1762.768677 
	C2413.670166,1712.026367 2459.905518,1653.523804 2496.737549,1587.611938 
	C2511.035645,1562.025879 2523.003174,1535.318726 2533.718994,1508.054810 
	C2540.817627,1489.993652 2551.934814,1474.946533 2566.859131,1462.592773 
	C2611.451416,1425.681274 2678.326904,1430.950073 2717.220947,1469.218384 
	C2742.312256,1493.905884 2751.221680,1533.266846 2737.339844,1567.437866 
	C2706.013916,1644.546997 2667.582031,1717.653442 2618.651855,1785.087402 
	C2598.710449,1812.570190 2577.058838,1838.631592 2554.020020,1863.610840 
	C2522.796631,1897.463745 2488.801514,1928.191406 2452.389893,1956.300171 
	C2415.955811,1984.426636 2377.282471,2009.074097 2336.761719,2030.906494 
	C2297.446533,2052.089355 2256.741943,2070.100342 2214.817383,2085.392334 
	C2167.246582,2102.743896 2118.464600,2115.639160 2068.553711,2124.095459 
	C2038.503418,2129.186279 2008.314331,2133.508301 1977.779785,2134.314453 
	C1952.181763,2134.990234 1926.572998,2135.477539 1900.967407,2135.554932 
	C1888.049683,2135.593994 1875.037109,2135.324707 1862.226685,2133.829590 
	C1826.306519,2129.636719 1790.556641,2124.147949 1755.016235,2117.413818 
	C1715.459839,2109.918945 1676.539551,2099.835449 1638.334351,2087.188721 
	C1589.601685,2071.057617 1542.649170,2050.736572 1497.660522,2025.927612 
	C1450.284668,1999.802368 1406.209839,1968.956909 1365.044434,1933.890991 
	C1327.207031,1901.659668 1292.859619,1866.046387 1261.133057,1826.889404 
z"/>
</svg>